<?xml version="1.0" standalone="no"?>
<!DOCTYPE svg PUBLIC "-//W3C//DTD SVG 20010904//EN"
 "http://www.w3.org/TR/2001/REC-SVG-20010904/DTD/svg10.dtd">
<svg version="1.0" xmlns="http://www.w3.org/2000/svg"
 width="600.000000pt" height="228.000000pt" viewBox="0 0 600.000000 228.000000"
 preserveAspectRatio="xMidYMid meet">

<g transform="translate(0.000000,228.000000) scale(0.100000,-0.100000)"
fill="#000000" stroke="none">
<path d="M1429 1972 c-8 -20 -49 -89 -91 -152 -88 -135 -191 -304 -215 -355
-15 -31 -22 -36 -45 -33 -31 5 -42 -20 -29 -67 4 -19 2 -47 -6 -74 -27 -90 -6
-137 74 -172 25 -10 46 -19 48 -19 1 0 5 18 8 39 3 22 13 60 22 84 l17 44 95
7 c52 4 98 5 101 2 3 -3 9 -32 13 -64 6 -44 14 -62 35 -81 24 -20 34 -23 80
-17 29 3 64 10 78 16 l26 10 -17 42 c-15 35 -18 72 -17 203 1 88 4 183 7 210
38 312 35 335 -54 377 -30 14 -67 28 -84 32 -28 6 -31 3 -46 -32z m17 -299
c-3 -21 -10 -78 -17 -128 -6 -49 -12 -91 -12 -91 -9 -7 -117 -11 -115 -4 6 16
143 260 146 260 2 0 1 -17 -2 -37z"/>
<path d="M4254 1973 c-10 -21 -48 -83 -84 -138 -73 -110 -170 -270 -215 -353
-26 -48 -32 -53 -56 -50 -33 5 -43 -18 -27 -63 8 -23 6 -43 -7 -84 -27 -88
-13 -121 72 -164 52 -26 53 -26 53 2 0 23 36 127 48 138 4 4 51 10 105 14 l97
7 0 -49 c0 -59 28 -110 67 -119 28 -7 131 10 145 24 4 4 0 27 -8 52 -13 37
-15 79 -11 245 3 110 11 256 18 325 15 155 10 171 -71 211 -30 14 -67 29 -82
33 -24 5 -29 2 -44 -31z m1 -405 c-9 -62 -17 -113 -18 -114 -9 -6 -117 -12
-114 -7 46 91 142 252 145 244 2 -6 -4 -61 -13 -123z"/>
<path d="M5298 1932 c-15 -42 -51 -142 -82 -222 -134 -346 -166 -440 -166
-485 0 -39 28 -74 82 -101 52 -26 68 -25 68 7 0 19 47 165 95 294 28 73 129
334 145 373 29 67 -12 156 -91 197 l-25 14 -26 -77z"/>
<path d="M5694 1973 c-10 -21 -48 -83 -85 -138 -62 -93 -195 -313 -229 -378
-11 -23 -20 -28 -41 -25 -33 5 -42 -16 -29 -63 6 -21 4 -50 -7 -92 -21 -80 -9
-111 62 -149 61 -34 65 -34 65 -5 1 26 34 125 46 137 5 4 53 11 107 15 l97 7
0 -49 c0 -59 28 -110 67 -119 28 -7 131 10 145 24 4 4 1 27 -8 50 -24 72 -27
177 -10 372 27 304 28 333 14 359 -13 24 -98 72 -150 85 -24 5 -29 2 -44 -31z
m7 -356 c-6 -34 -13 -86 -17 -114 -5 -50 -8 -53 -34 -53 -15 0 -42 -3 -60 -6
-31 -7 -32 -6 -20 17 51 99 135 239 138 229 2 -6 -1 -39 -7 -73z"/>
<path d="M516 1898 c-21 -57 -46 -121 -56 -143 -9 -22 -29 -69 -43 -105 -13
-36 -37 -96 -52 -135 -49 -123 -85 -246 -85 -289 0 -49 20 -76 81 -107 49 -25
62 -22 64 17 4 56 72 280 134 439 26 65 26 46 0 -78 -29 -138 -31 -243 -4
-279 19 -25 93 -68 143 -83 17 -5 22 -2 22 13 0 43 46 165 117 310 75 155 100
190 64 91 -44 -123 -72 -228 -78 -292 -5 -62 -4 -70 18 -93 22 -24 97 -64 120
-64 5 0 9 17 9 38 0 58 35 199 103 417 17 55 32 102 32 105 0 3 9 30 20 60 42
124 18 186 -95 242 -41 21 -78 34 -82 30 -5 -5 -11 -19 -13 -32 -4 -21 -207
-432 -211 -427 -1 1 7 43 17 92 38 178 26 264 -41 309 -32 21 -130 66 -144 66
-1 0 -20 -46 -40 -102z"/>
<path d="M2000 1982 c-119 -37 -190 -67 -196 -85 -3 -10 4 -37 15 -60 l21 -43
-56 -134 c-178 -431 -184 -470 -84 -531 53 -32 70 -35 70 -12 0 24 82 263 91
263 4 0 15 -21 25 -47 32 -86 84 -177 116 -205 54 -47 108 -36 185 36 25 22
30 33 22 43 -6 7 -9 13 -5 13 3 0 -14 18 -38 40 -40 37 -116 146 -116 167 0 5
24 20 52 34 62 28 176 137 202 192 39 85 30 209 -21 276 -52 68 -164 89 -283
53z m130 -182 c11 -11 20 -28 20 -39 0 -41 -107 -144 -183 -176 l-37 -15 16
37 c30 69 43 124 38 152 -6 26 -3 30 37 44 60 21 86 20 109 -3z"/>
<path d="M2638 1976 c-106 -43 -197 -134 -267 -267 -89 -167 -118 -376 -67
-484 27 -59 46 -77 106 -104 118 -54 278 5 322 118 14 37 13 121 -2 166 l-12
38 -20 -31 c-52 -83 -197 -96 -229 -21 -25 62 30 225 110 327 38 47 116 111
125 101 2 -2 -4 -21 -14 -42 -10 -21 -19 -41 -20 -45 0 -4 -5 -24 -11 -45 -17
-65 25 -116 111 -132 l35 -6 17 58 c9 32 27 85 39 118 42 115 24 202 -51 252
-43 30 -99 29 -172 -1z"/>
<path d="M3199 1996 c-2 -2 -22 -7 -44 -10 -22 -3 -60 -10 -85 -16 -25 -5 -61
-9 -81 -10 -46 0 -51 -12 -35 -88 l12 -60 -54 -134 c-68 -169 -132 -360 -132
-395 0 -63 76 -164 136 -179 14 -4 72 4 130 16 57 12 125 22 150 23 l45 0 -5
36 c-9 64 -34 133 -57 157 -26 27 -66 31 -149 13 -28 -6 -53 -9 -55 -7 -2 2 3
24 13 50 15 44 19 47 77 63 33 10 91 20 128 23 l69 5 -7 46 c-4 25 -16 63 -27
85 l-20 39 -59 -6 c-59 -5 -74 4 -49 29 6 6 12 25 13 42 2 33 11 39 63 47 16
2 60 8 97 14 38 7 84 9 104 5 l35 -7 -7 34 c-16 84 -38 143 -60 165 -20 20
-34 24 -83 24 -32 0 -61 -2 -63 -4z"/>
<path d="M3524 1973 c-4 -15 -43 -118 -87 -228 -113 -284 -177 -472 -177 -520
0 -28 7 -48 20 -63 20 -22 91 -62 108 -62 5 0 16 35 25 78 19 85 135 448 142
440 1 -2 -4 -75 -12 -163 -22 -228 -8 -268 112 -324 85 -41 101 -40 108 3 6
36 56 180 114 331 141 359 151 402 114 458 -17 27 -89 83 -96 75 -1 -1 -42
-121 -90 -266 -49 -144 -90 -260 -92 -258 -3 2 0 47 6 100 14 122 14 257 0
293 -15 40 -47 71 -99 98 -78 39 -88 40 -96 8z"/>
<path d="M4869 1996 c-2 -3 -16 -7 -29 -9 -33 -7 -218 -75 -205 -76 6 -1 4 -5
-3 -10 -11 -7 -10 -18 8 -59 l22 -50 -30 -73 c-17 -41 -53 -130 -82 -198 -28
-68 -62 -164 -76 -212 -24 -85 -25 -90 -8 -124 12 -25 31 -44 65 -61 60 -30
69 -30 69 -1 0 13 8 48 17 78 9 30 18 59 19 64 5 20 43 118 48 122 2 2 10 -13
16 -34 47 -142 130 -253 191 -253 47 0 149 66 149 96 0 7 -18 30 -40 51 -41
37 -130 163 -130 183 0 5 6 10 13 10 24 0 165 100 195 138 28 35 69 108 70
125 1 4 4 23 8 43 9 48 -21 152 -54 188 -40 43 -98 66 -168 66 -33 0 -63 -2
-65 -4z m79 -192 c38 -27 23 -82 -40 -140 -35 -33 -117 -84 -135 -84 -7 0 -1
30 14 71 17 49 23 82 18 105 -6 32 -5 34 42 48 62 19 74 19 101 0z"/>
<path d="M1976 1008 c-12 -40 -61 -177 -73 -206 l-14 -34 -20 21 c-58 63 -169
-12 -247 -166 -32 -63 -64 -189 -57 -223 11 -49 42 -80 81 -80 26 0 44 10 79
43 33 32 45 39 45 26 0 -22 65 -79 90 -79 14 0 20 7 20 23 0 33 75 252 120
352 38 84 62 158 67 206 5 53 4 57 -29 92 -37 38 -56 46 -62 25z m-152 -399
c-14 -29 -38 -70 -52 -91 -25 -39 -52 -50 -52 -23 0 28 61 144 93 177 30 31
32 32 35 11 2 -12 -9 -45 -24 -74z"/>
<path d="M4227 950 c-43 -34 -47 -99 -6 -121 17 -9 21 -7 26 10 7 26 28 26 86
1 58 -26 106 -17 125 23 23 47 -14 122 -38 78 -14 -27 -29 -26 -86 4 -57 30
-74 31 -107 5z"/>
<path d="M1259 792 c-60 -39 -115 -104 -152 -182 -27 -55 -31 -77 -32 -142 0
-71 2 -79 30 -107 37 -39 88 -54 138 -40 70 19 137 99 137 163 0 30 -3 31 -33
12 -35 -23 -80 -28 -101 -13 -22 16 -14 37 15 37 33 0 114 47 148 85 59 68 68
133 25 184 -23 27 -32 31 -78 31 -40 0 -62 -7 -97 -28z m81 -92 c0 -20 -63
-90 -80 -90 -13 0 -13 6 5 40 12 24 59 70 71 70 2 0 4 -9 4 -20z"/>
<path d="M2172 798 c-112 -54 -220 -255 -198 -370 14 -75 86 -125 160 -111 73
14 134 80 150 162 5 29 4 32 -12 26 -56 -24 -92 -33 -110 -28 -24 6 -37 32
-19 37 6 2 30 9 53 15 46 12 127 78 149 122 24 45 19 103 -11 138 -22 27 -32
31 -72 31 -26 -1 -66 -10 -90 -22z m68 -98 c0 -23 -56 -90 -75 -90 -21 0 -6
38 30 76 37 39 45 42 45 14z"/>
<path d="M2487 789 c-112 -74 -197 -266 -168 -377 24 -86 125 -122 205 -73 39
25 80 87 91 139 7 36 1 39 -41 17 -64 -33 -100 -14 -97 50 2 47 48 145 72 153
10 3 10 0 1 -17 -6 -12 -8 -31 -5 -42 8 -23 66 -54 88 -46 7 3 22 33 31 67 14
49 15 67 6 95 -24 72 -103 87 -183 34z"/>
<path d="M2829 800 c-50 -27 -105 -92 -143 -170 -24 -51 -31 -82 -34 -141 -5
-88 11 -130 58 -154 126 -65 288 87 307 289 14 157 -72 237 -188 176z m68
-117 c10 -25 -25 -144 -53 -180 -37 -48 -54 -43 -54 15 0 51 29 124 62 160 26
26 36 28 45 5z"/>
<path d="M3115 747 c-15 -40 -36 -90 -46 -112 -33 -72 -67 -172 -69 -201 -4
-62 0 -73 37 -99 56 -38 67 -34 81 31 15 73 71 187 117 242 28 32 44 42 66 42
18 0 32 -6 36 -16 11 -30 32 26 33 86 0 105 -52 131 -115 58 -29 -35 -38 -40
-45 -28 -5 8 -10 18 -10 22 0 4 -13 16 -28 27 l-29 20 -28 -72z"/>
<path d="M3895 803 c-99 -52 -195 -218 -195 -337 0 -34 31 -126 42 -126 2 0
21 -7 43 -15 l40 -14 -35 -1 c-38 0 -71 -22 -89 -57 -24 -48 -5 -89 28 -59 10
9 23 16 29 16 24 0 11 -29 -29 -63 -38 -34 -39 -36 -20 -46 29 -16 49 -14 91
10 38 22 80 82 80 115 0 11 -9 33 -19 51 -21 33 -18 43 10 43 46 0 128 108
129 169 0 18 -4 22 -17 16 -62 -25 -75 -27 -99 -16 -19 8 -24 18 -24 46 0 39
39 133 63 153 14 12 15 10 11 -20 -7 -39 15 -64 62 -74 28 -5 30 -3 48 46 24
67 18 132 -15 160 -29 24 -92 26 -134 3z"/>
<path d="M4216 803 c-39 -21 -104 -90 -128 -137 -59 -115 -72 -209 -39 -275
25 -49 60 -71 111 -71 112 0 217 122 241 282 20 132 -25 219 -113 217 -24 -1
-56 -8 -72 -16z m61 -163 c-8 -96 -72 -199 -98 -160 -21 32 15 151 60 198 36
37 44 28 38 -38z"/>
<path d="M4602 798 c-127 -62 -239 -306 -185 -407 10 -19 30 -44 45 -54 51
-38 153 -20 205 35 21 23 60 124 51 133 -3 3 -19 -2 -37 -11 -41 -20 -100 -22
-111 -4 -12 20 -5 27 38 33 42 7 119 57 153 101 16 20 24 47 27 87 4 51 2 60
-21 83 -33 33 -102 35 -165 4z m72 -93 c6 -18 -59 -95 -80 -95 -19 0 8 53 43
86 31 28 29 28 37 9z"/>
<path d="M4929 800 c-49 -26 -96 -74 -114 -116 -24 -57 -7 -98 60 -144 25 -17
43 -35 40 -41 -4 -5 -26 -9 -51 -9 -34 0 -51 6 -69 24 -26 27 -39 23 -54 -17
-39 -103 17 -177 134 -177 108 0 175 59 175 155 0 47 -2 52 -59 105 -57 55
-58 57 -46 87 7 16 20 33 29 36 19 7 19 6 6 -29 -6 -15 -8 -35 -5 -45 6 -18
63 -59 82 -59 6 0 23 34 38 75 24 66 26 79 15 106 -28 66 -108 88 -181 49z"/>
<path d="M3506 793 c-45 -24 -90 -77 -129 -151 -48 -92 -63 -138 -66 -208 -2
-48 2 -65 19 -87 32 -40 79 -37 129 9 38 33 40 34 50 15 12 -22 71 -61 92 -61
10 0 19 22 27 65 6 35 32 116 57 179 52 134 56 172 19 215 -32 38 -49 39 -62
4 -6 -17 -11 -21 -11 -11 -1 22 -39 48 -71 48 -14 -1 -38 -8 -54 -17z m55
-190 c-42 -80 -74 -123 -91 -123 -16 0 -11 22 19 86 34 72 90 139 104 125 6
-6 -6 -38 -32 -88z"/>
</g>
</svg>
